<?xml version="1.0" standalone="no"?>
<!DOCTYPE svg PUBLIC "-//W3C//DTD SVG 20010904//EN"
 "http://www.w3.org/TR/2001/REC-SVG-20010904/DTD/svg10.dtd">
<svg version="1.0" xmlns="http://www.w3.org/2000/svg"
 width="1500.000000pt" height="1500.000000pt" viewBox="0 0 1500.000000 1500.000000"
 preserveAspectRatio="xMidYMid meet">
<metadata>
Created by potrace 1.11, written by Peter Selinger 2001-2013
</metadata>
<g transform="translate(0.000000,1500.000000) scale(0.100000,-0.100000)"
fill="#000000" stroke="none">
<path d="M7100 14005 l-395 -395 -655 0 -655 0 -460 -460 -460 -460 -562 0
-563 0 0 -563 0 -562 -460 -460 -460 -460 0 -655 0 -655 -397 -397 -398 -398
398 -398 397 -397 0 -655 0 -655 460 -460 460 -460 0 -562 0 -563 562 0 562 0
461 -460 461 -460 655 0 654 0 397 -397 398 -398 398 398 397 397 650 0 650 0
460 460 460 460 562 0 563 0 0 563 0 562 465 465 465 465 0 650 0 650 397 397
398 398 -398 398 -397 397 0 650 0 650 -465 465 -465 465 0 563 0 562 -563 0
-562 0 -460 460 -460 460 -650 0 -650 0 -395 395 c-217 217 -397 395 -400 395
-3 0 -183 -178 -400 -395z m665 -795 l261 -260 651 0 650 0 464 -460 464 -459
368 -1 367 0 0 -368 0 -367 460 -460 460 -460 0 -655 0 -655 262 -262 263
-263 -263 -263 -262 -262 0 -655 0 -655 -460 -460 -460 -460 0 -367 0 -368
-371 0 -371 0 -462 -460 -463 -460 -648 0 -649 0 -261 -260 c-143 -143 -265
-260 -270 -260 -6 0 -127 117 -270 260 l-259 260 -651 0 -650 0 -460 460 -460
460 -372 0 -373 0 0 373 0 372 -460 460 -460 460 0 650 0 650 -262 262 -263
263 263 263 262 262 0 650 0 650 460 460 460 460 0 372 0 373 373 0 372 0 460
460 460 460 650 0 650 0 260 260 c143 143 264 260 270 260 5 0 127 -117 270
-260z"/>
<path d="M7365 13090 c-71 -71 -127 -132 -124 -135 4 -3 121 -4 263 -3 l256 3
-132 133 -133 132 -130 -130z"/>
<path d="M5375 12400 l-370 -370 180 0 180 0 245 245 245 245 340 0 340 0 125
125 125 125 -520 0 -520 0 -370 -370z"/>
<path d="M6920 12645 l-125 -125 700 0 700 0 -125 125 -125 125 -450 0 -450 0
-125 -125z"/>
<path d="M8330 12645 l125 -125 345 0 345 0 245 -245 245 -245 180 0 180 0
-370 370 -370 370 -525 0 -525 0 125 -125z"/>
<path d="M5780 12185 l-155 -155 210 0 210 0 155 155 155 155 -210 0 -210 0
-155 -155z"/>
<path d="M6461 12185 l-156 -155 1190 0 1190 0 -155 155 -155 155 -879 0 -880
0 -155 -155z"/>
<path d="M8650 12332 c0 -4 66 -74 148 -155 l147 -147 215 0 215 0 -155 155
-155 155 -207 0 c-115 0 -208 -3 -208 -8z"/>
<path d="M4190 11663 l0 -188 185 185 c102 102 185 186 185 187 0 2 -83 3
-185 3 l-185 0 0 -187z"/>
<path d="M4507 11532 l-317 -318 2 -177 3 -177 495 495 495 495 -180 0 -180 0
-318 -318z"/>
<path d="M4816 11228 l-627 -623 3 -213 3 -212 835 835 835 835 -211 0 -210 0
-628 -622z"/>
<path d="M5157 10882 l-967 -967 0 -1375 0 -1375 968 -968 967 -967 1370 0
1370 0 973 973 972 972 0 1365 0 1365 -972 972 -973 973 -1370 0 -1370 0 -968
-968z m2750 -117 c129 -18 242 -47 363 -92 148 -55 251 -112 387 -215 l43 -31
112 108 c62 60 134 130 161 157 74 75 128 75 141 1 8 -52 6 -1212 -3 -1243 -8
-28 -43 -39 -66 -20 -8 6 -24 42 -36 78 -77 235 -189 475 -292 625 -193 284
-489 470 -821 516 -129 18 -334 14 -447 -9 -300 -61 -541 -241 -697 -521 -78
-139 -156 -375 -192 -579 -36 -209 -42 -310 -47 -830 -8 -742 11 -1033 88
-1338 74 -299 176 -490 354 -667 198 -197 423 -284 735 -285 354 0 603 131
725 385 77 159 95 298 95 753 l0 332 -340 0 -340 0 0 50 0 50 945 0 945 0 0
-50 0 -50 -275 0 -275 0 0 -107 c0 -264 -34 -506 -92 -657 -189 -490 -627
-772 -1272 -817 -832 -58 -1592 501 -1938 1426 -136 364 -173 838 -98 1253
113 625 496 1210 996 1520 356 221 758 312 1141 257z"/>
<path d="M9965 11010 l840 -840 3 212 2 213 -627 627 -628 628 -215 0 -215 0
840 -840z"/>
<path d="M10310 11355 l495 -495 3 177 2 177 -317 318 -318 318 -180 0 -180 0
495 -495z"/>
<path d="M10620 11665 c102 -102 186 -185 187 -185 2 0 3 83 3 185 l0 185
-187 0 -188 0 185 -185z"/>
<path d="M10990 10855 l0 -180 245 -245 245 -245 0 -345 0 -345 125 -125 125
-125 0 525 0 525 -370 370 -370 370 0 -180z"/>
<path d="M3633 10658 l-363 -363 0 -520 0 -520 125 125 125 125 0 340 0 340
240 240 240 241 -2 177 -3 177 -362 -362z"/>
<path d="M3848 10263 l-148 -148 0 -215 0 -215 150 150 150 150 -2 213 -3 212
-147 -147z"/>
<path d="M10990 10200 l0 -215 150 -150 150 -150 0 215 0 215 -150 150 -150
150 0 -215z"/>
<path d="M3847 9572 l-147 -147 0 -885 0 -885 150 -150 150 -150 0 1183 c0
650 -1 1182 -3 1182 -1 0 -69 -66 -150 -148z"/>
<path d="M10990 8540 l0 -1185 150 150 150 150 0 885 0 885 -150 150 -150 150
0 -1185z"/>
<path d="M3392 9117 l-122 -122 0 -455 0 -455 125 -125 125 -125 0 703 c0 386
-1 702 -3 702 -1 0 -57 -55 -125 -123z"/>
<path d="M11480 8540 l0 -695 125 125 125 125 0 445 0 445 -125 125 -125 125
0 -695z"/>
<path d="M2945 8670 l-130 -130 133 -133 132 -132 0 263 c0 144 -1 262 -3 262
-1 0 -61 -59 -132 -130z"/>
<path d="M11910 8540 l0 -265 132 133 133 132 -133 132 -132 133 0 -265z"/>
<path d="M11603 7708 l-123 -123 0 -345 0 -345 -245 -245 -245 -245 0 -180 0
-180 370 370 370 370 -2 523 -3 522 -122 -122z"/>
<path d="M3270 7305 l0 -520 365 -365 365 -365 0 180 0 180 -240 240 -240 240
0 340 0 340 -125 125 -125 125 0 -520z"/>
<path d="M3700 7182 l0 -207 150 -150 150 -150 0 215 0 215 -143 143 c-78 78
-146 142 -150 142 -4 0 -7 -93 -7 -208z"/>
<path d="M11138 7243 l-148 -148 0 -215 0 -215 150 150 150 150 -2 213 -3 212
-147 -147z"/>
<path d="M4190 6699 l0 -214 627 -627 627 -628 216 0 215 0 -425 421 c-234
232 -613 610 -842 841 l-418 420 0 -213z"/>
<path d="M9965 6070 l-840 -840 215 0 215 0 628 628 627 627 -2 213 -3 212
-840 -840z"/>
<path d="M4190 6045 l0 -180 318 -318 318 -317 177 2 177 3 -495 495 -495 495
0 -180z"/>
<path d="M10310 5725 l-495 -495 180 0 180 0 318 318 317 318 -2 177 -3 177
-495 -495z"/>
<path d="M4190 5415 l0 -185 187 0 188 0 -185 185 c-102 102 -186 185 -187
185 -2 0 -3 -83 -3 -185z"/>
<path d="M10620 5415 l-185 -185 188 0 187 0 0 185 c0 102 -1 185 -3 185 -1 0
-85 -83 -187 -185z"/>
<path d="M5375 4680 l370 -370 519 0 519 0 -119 124 -119 124 -345 1 -345 1
-245 245 -245 245 -180 0 -180 0 370 -370z"/>
<path d="M5780 4895 l155 -155 207 0 c115 0 208 4 208 8 0 4 -67 74 -148 155
l-149 147 -214 0 -214 0 155 -155z"/>
<path d="M6461 4895 l155 -155 879 0 879 0 155 155 156 155 -1190 0 -1190 0
156 -155z"/>
<path d="M8797 4902 c-81 -81 -147 -151 -147 -155 0 -4 93 -7 208 -7 l207 0
155 155 155 155 -215 0 -215 0 -148 -148z"/>
<path d="M9390 4805 l-245 -245 -345 0 -345 0 -125 -125 -125 -125 525 0 525
0 370 370 370 370 -180 0 -180 0 -245 -245z"/>
<path d="M6920 4435 l125 -125 450 0 450 0 125 125 125 125 -700 0 -700 0 125
-125z"/>
<path d="M7240 4122 c0 -4 57 -65 128 -135 l127 -127 128 128 c70 70 127 131
127 135 0 4 -115 7 -255 7 -140 0 -255 -3 -255 -8z"/>
<path d="M4410 2077 c-84 -24 -145 -62 -221 -137 -119 -117 -179 -263 -179
-435 0 -263 167 -505 394 -570 119 -35 299 -3 384 66 71 59 109 139 119 256
l6 73 68 0 c55 0 69 3 69 15 0 13 -34 15 -245 15 -211 0 -245 -2 -245 -15 0
-12 17 -15 92 -15 l91 0 -6 -114 c-9 -159 -32 -210 -112 -247 -46 -22 -138
-25 -197 -7 -90 27 -170 132 -199 263 -19 85 -19 490 0 565 31 121 85 200 165
243 60 32 190 31 264 -2 74 -33 142 -111 182 -208 18 -43 36 -82 41 -88 5 -5
9 63 9 168 0 199 -1 202 -64 138 l-37 -38 -78 40 c-70 35 -87 40 -167 43 -54
2 -107 -1 -134 -9z"/>
<path d="M5429 1535 l-183 -555 -73 0 c-58 0 -73 -3 -73 -15 0 -13 27 -15 185
-15 158 0 185 2 185 15 0 12 -17 15 -95 15 -52 0 -95 3 -95 7 0 5 23 77 51
160 l51 153 167 0 167 0 48 -147 c27 -82 51 -154 53 -160 4 -10 -16 -13 -81
-13 -70 0 -86 -3 -86 -15 0 -13 34 -15 245 -15 211 0 245 2 245 15 0 12 -15
15 -72 15 l-73 0 -183 555 c-100 305 -187 555 -191 555 -5 0 -92 -250 -192
-555z m200 25 c39 -118 71 -218 71 -223 0 -4 -69 -7 -154 -7 l-154 0 76 230
c42 126 79 226 83 222 4 -4 39 -104 78 -222z"/>
<path d="M7812 2068 c-5 -13 -87 -263 -183 -555 l-174 -533 -72 0 c-58 0 -73
-3 -73 -15 0 -13 27 -15 185 -15 158 0 185 2 185 15 0 12 -17 15 -95 15 -70 0
-95 3 -94 13 0 6 21 77 47 157 l48 145 169 0 170 0 52 -150 c28 -82 52 -153
52 -157 1 -5 -37 -8 -84 -8 -69 0 -85 -3 -85 -15 0 -13 34 -15 245 -15 211 0
245 2 245 15 0 12 -15 15 -75 15 l-74 0 -14 48 c-54 180 -352 1062 -359 1062
-5 0 -12 -10 -16 -22z m98 -730 c0 -5 -70 -8 -156 -8 -121 0 -155 3 -151 13 2
6 37 112 78 234 l73 222 78 -227 c43 -125 78 -230 78 -234z"/>
<path d="M6220 2060 c0 -5 30 -10 67 -12 l67 -3 163 -274 163 -273 0 -259 0
-259 -80 0 c-64 0 -80 -3 -80 -15 0 -13 33 -15 240 -15 207 0 240 2 240 15 0
12 -16 15 -80 15 l-80 0 0 283 0 282 138 250 138 250 67 3 c37 2 67 7 67 12 0
6 -69 10 -170 10 -107 0 -170 -4 -170 -10 0 -6 33 -10 80 -10 44 0 80 -2 80
-5 0 -5 -229 -423 -246 -448 -11 -17 -28 7 -148 208 -75 125 -136 232 -136
236 0 5 34 9 75 9 43 0 75 4 75 10 0 6 -85 10 -235 10 -142 0 -235 -4 -235
-10z"/>
<path d="M8456 2048 c-9 -41 -27 -290 -22 -295 11 -11 36 8 36 27 0 35 40 142
68 181 49 68 81 82 185 83 l92 1 3 -532 2 -532 -72 -3 c-46 -2 -73 -7 -76 -15
-3 -10 46 -13 222 -13 194 0 226 2 226 15 0 12 -14 15 -70 15 l-70 0 2 533 3
532 35 3 c19 2 64 1 98 -3 54 -6 70 -12 104 -43 48 -43 76 -95 98 -182 12 -47
21 -66 34 -68 16 -4 18 1 13 40 -4 23 -9 86 -13 138 -4 52 -10 105 -15 118
l-9 22 -435 0 -435 0 -4 -22z"/>
<path d="M9460 2060 c0 -5 33 -10 73 -12 l72 -3 3 -532 2 -532 -72 -3 c-46 -2
-73 -7 -76 -15 -3 -10 46 -13 222 -13 194 0 226 2 226 15 0 12 -14 15 -70 15
l-70 0 0 270 0 270 90 0 c101 0 132 -11 174 -60 37 -45 54 -116 65 -268 11
-149 30 -205 80 -235 54 -31 193 -16 252 28 l24 17 -25 -6 c-67 -18 -95 -18
-119 1 -22 18 -24 29 -31 166 -7 126 -12 154 -34 199 -40 84 -69 111 -158 143
-35 13 -56 25 -48 28 124 39 179 78 214 149 64 127 12 278 -118 345 -72 37
-125 43 -403 43 -167 0 -273 -4 -273 -10z m513 -19 c61 -10 96 -36 125 -91 19
-38 22 -60 22 -155 0 -198 -47 -245 -242 -245 l-108 0 0 250 0 250 78 -1 c42
0 99 -4 125 -8z"/>
<path d="M10530 2060 c0 -6 30 -10 70 -10 l70 0 0 -535 0 -535 -70 0 c-56 0
-70 -3 -70 -15 0 -13 32 -15 225 -15 193 0 225 2 225 15 0 12 -15 15 -75 15
l-75 0 2 533 3 532 73 3 c39 2 72 7 72 12 0 6 -89 10 -225 10 -143 0 -225 -4
-225 -10z"/>
</g>
</svg>
